<svg xmlns="http://www.w3.org/2000/svg" xmlns:xlink="http://www.w3.org/1999/xlink" version="1.1" x="0px" y="0px" viewBox="0 0 100 125" enable-background="new 0 0 100 100" xml:space="preserve"><path fill-rule="evenodd" clip-rule="evenodd" d="M70.5,92.5v-22h22v22H70.5z M70.5,39.5h22v22h-22V39.5z M70.5,8.5h22v22h-22V8.5z   M39.5,70.5h22v22h-22V70.5z M39.5,39.5h22v22h-22V39.5z M39.5,8.5h22v22h-22V8.5z M8.5,70.5h22v22h-22V70.5z M8.5,39.5h22v22h-22  V39.5z M8.5,8.5h22v22h-22V8.5z"/><text x="0" y="115" fill="#000000" font-size="5px" font-weight="bold" font-family="'Helvetica Neue', Helvetica, Arial-Unicode, Arial, Sans-serif">Created by Anusha Narvekar</text><text x="0" y="120" fill="#000000" font-size="5px" font-weight="bold" font-family="'Helvetica Neue', Helvetica, Arial-Unicode, Arial, Sans-serif">from the Noun Project</text></svg>