<svg xmlns="http://www.w3.org/2000/svg" xmlns:xlink="http://www.w3.org/1999/xlink" version="1.1" x="0px" y="0px" viewBox="0 0 96.001 120" enable-background="new 0 0 96.001 96" xml:space="preserve"><path d="M86.59,66.278H9.41c-1.792,0-3.25,1.458-3.25,3.25v12.91c0,1.792,1.458,3.25,3.25,3.25h77.18c1.792,0,3.25-1.458,3.25-3.25  v-12.91C89.84,67.736,88.382,66.278,86.59,66.278z"/><path d="M86.59,38.295H9.41c-1.792,0-3.25,1.458-3.25,3.25v12.91c0,1.792,1.458,3.25,3.25,3.25h77.18c1.792,0,3.25-1.458,3.25-3.25  v-12.91C89.84,39.753,88.382,38.295,86.59,38.295z"/><path d="M86.59,10.312H9.41c-1.792,0-3.25,1.458-3.25,3.25v12.91c0,1.792,1.458,3.25,3.25,3.25h77.18c1.792,0,3.25-1.458,3.25-3.25  v-12.91C89.84,11.77,88.382,10.312,86.59,10.312z"/><text x="0" y="111" fill="#000000" font-size="5px" font-weight="bold" font-family="'Helvetica Neue', Helvetica, Arial-Unicode, Arial, Sans-serif">Created by ahmad</text><text x="0" y="116" fill="#000000" font-size="5px" font-weight="bold" font-family="'Helvetica Neue', Helvetica, Arial-Unicode, Arial, Sans-serif">from the Noun Project</text></svg>