<svg xmlns="http://www.w3.org/2000/svg" data-name="Layer 1" viewBox="0 0 32 40" x="0px" y="0px"><path d="M17.55,4.13l1.88,5.77c.22,.67,.85,1.13,1.55,1.13h6.07c1.58,0,2.24,2.03,.96,2.96l-4.91,3.57c-.57,.42-.81,1.15-.59,1.83l1.88,5.77c.49,1.51-1.23,2.76-2.52,1.83l-4.91-3.57c-.57-.42-1.35-.42-1.92,0l-4.91,3.57c-1.28,.93-3-.32-2.52-1.83l1.88-5.77c.22-.67-.02-1.41-.59-1.83l-4.91-3.57c-1.28-.93-.62-2.96,.96-2.96h6.07c.71,0,1.34-.46,1.55-1.13l1.88-5.77c.49-1.51,2.62-1.51,3.11,0Z"/><text x="0" y="47" fill="#000000" font-size="5px" font-weight="bold" font-family="'Helvetica Neue', Helvetica, Arial-Unicode, Arial, Sans-serif">Created by Ahbib Farrih</text><text x="0" y="52" fill="#000000" font-size="5px" font-weight="bold" font-family="'Helvetica Neue', Helvetica, Arial-Unicode, Arial, Sans-serif">from the Noun Project</text></svg>